<mxfile host="app.diagrams.net" modified="2023-10-18T14:27:26.997Z" agent="Mozilla/5.0 (Windows NT 10.0; Win64; x64) AppleWebKit/537.36 (KHTML, like Gecko) Chrome/118.0.0.0 Safari/537.36 Edg/118.0.2088.46" etag="FrtvbE87X-Rax9jlDDQJ" version="21.8.1" type="github">
  <diagram name="第 1 页" id="2bs5ZyLC9dE2MSnKkybB">
    <mxGraphModel dx="1188" dy="626" grid="1" gridSize="10" guides="1" tooltips="1" connect="1" arrows="1" fold="1" page="1" pageScale="1" pageWidth="827" pageHeight="1169" math="0" shadow="0">
      <root>
        <mxCell id="0" />
        <mxCell id="1" parent="0" />
        <mxCell id="sGKTkstdBS1jnYtq7SaR-1" value="Linux多进程开发" style="rounded=1;whiteSpace=wrap;html=1;fillColor=#d5e8d4;strokeColor=#82b366;sketch=1;curveFitting=1;jiggle=2;" vertex="1" parent="1">
          <mxGeometry x="10" y="300" width="120" height="40" as="geometry" />
        </mxCell>
        <mxCell id="sGKTkstdBS1jnYtq7SaR-2" value="进程" style="rounded=0;whiteSpace=wrap;html=1;fillColor=#f8cecc;strokeColor=#b85450;sketch=1;curveFitting=1;jiggle=2;glass=0;shadow=0;" vertex="1" parent="1">
          <mxGeometry x="180" y="80" width="150" height="30" as="geometry" />
        </mxCell>
        <mxCell id="sGKTkstdBS1jnYtq7SaR-3" value="进程状态转换" style="rounded=0;whiteSpace=wrap;html=1;fillColor=#f8cecc;strokeColor=#b85450;sketch=1;curveFitting=1;jiggle=2;glass=0;shadow=0;" vertex="1" parent="1">
          <mxGeometry x="180" y="130" width="150" height="30" as="geometry" />
        </mxCell>
        <mxCell id="sGKTkstdBS1jnYtq7SaR-4" value="进程创建" style="rounded=0;whiteSpace=wrap;html=1;fillColor=#f8cecc;strokeColor=#b85450;sketch=1;curveFitting=1;jiggle=2;glass=0;shadow=0;" vertex="1" parent="1">
          <mxGeometry x="180" y="180" width="150" height="30" as="geometry" />
        </mxCell>
      </root>
    </mxGraphModel>
  </diagram>
</mxfile>
